<?xml version="1.0" ?><svg viewBox="0 0 470.98 638.5" xmlns="http://www.w3.org/2000/svg" xmlns:xlink="http://www.w3.org/1999/xlink"><defs><style>.cls-1{fill:none;}.cls-2{fill:#61a633;}.cls-3{fill:#5b9934;}.cls-4{fill:#8e6942;}.cls-5{fill:#997350;}.cls-6{fill:#62b532;}.cls-7{fill:#60a434;}.cls-8{fill:#f4d553;}.cls-9{fill:#ffe164;}.cls-10{fill:#f7ce21;}.cls-11{clip-path:url(#clip-path);}.cls-12{fill:#ff5c5c;}.cls-13{fill:#f7faf5;}</style><clipPath id="clip-path" transform="translate(0)"><path class="cls-1" d="M456,523.52l-57.51-86.22-20.73-31.07a39.85,39.85,0,0,0,12.18-56L364,311.35,334.74,267.5l-5.23-7.84L314,236.35a33.54,33.54,0,0,0,16.18-50l-29.9-44.83-41.1-61.61a33.53,33.53,0,0,0-55.78,0l-41.1,61.61-29.9,44.83a33.54,33.54,0,0,0,16.18,50L133,259.66l-5.23,7.84L98.53,311.35,72.59,350.24a39.85,39.85,0,0,0,12.18,56L64,437.29,6.54,523.51C-8.94,546.73,4.48,578.24,32,583.09a1147.9,1147.9,0,0,0,199.27,17.23h0a1147.91,1147.91,0,0,0,199.28-17.23C458,578.24,471.46,546.73,456,523.52Z"/></clipPath></defs><title/><g data-name="图层 2" id="图层_2"><g data-name="图层 1" id="图层_1-2"><path class="cls-2" d="M456,523.52l-57.51-86.22-20.73-31.07a39.85,39.85,0,0,0,12.18-56L364,311.35,334.74,267.5l-5.23-7.84L314,236.35a33.54,33.54,0,0,0,16.18-50l-29.9-44.83-41.1-61.61a33.53,33.53,0,0,0-55.78,0l-41.1,61.61-29.9,44.83a33.54,33.54,0,0,0,16.18,50L133,259.66l-5.23,7.84L98.53,311.35,72.59,350.24a39.85,39.85,0,0,0,12.18,56L64,437.29,6.54,523.51C-8.94,546.73,4.48,578.24,32,583.09a1147.9,1147.9,0,0,0,199.27,17.23h0a1147.91,1147.91,0,0,0,199.28-17.23C458,578.24,471.46,546.73,456,523.52Z" transform="translate(0)"/><path class="cls-2" d="M456,523.52l-57.51-86.22h-.06a993.49,993.49,0,0,1-167.15,14h0a993.49,993.49,0,0,1-167.15-14H64L6.54,523.51C-8.94,546.73,4.48,578.24,32,583.09a1147.9,1147.9,0,0,0,199.27,17.23h0a1147.91,1147.91,0,0,0,199.28-17.23C458,578.24,471.46,546.73,456,523.52Z" transform="translate(0)"/><path class="cls-3" d="M314,236.35a34.62,34.62,0,0,1-5.78,1.61q-19.08,3.55-39.1,5.33-18.58,1.64-37.82,1.67h0q-19.22,0-37.82-1.67-20-1.77-39.1-5.33a34.62,34.62,0,0,1-5.78-1.61L133,259.66c.34.07.67.16,1,.22q21.61,4,44.19,6.25,26,2.56,53,2.6h0q27,0,53-2.6,22.55-2.22,44.19-6.25c.34-.06.68-.15,1-.22Z" transform="translate(0)"/><path class="cls-2" d="M330.14,186.36l-29.9-44.83-41.1-61.61a33.53,33.53,0,0,0-55.78,0l-41.1,61.61-29.9,44.83a33.54,33.54,0,0,0,16.18,50,34.62,34.62,0,0,0,5.78,1.61q19.08,3.55,39.1,5.33Q212,244.94,231.26,245h0q19.22,0,37.82-1.67,20-1.77,39.1-5.33a34.62,34.62,0,0,0,5.78-1.61A33.54,33.54,0,0,0,330.14,186.36Z" transform="translate(0)"/><path class="cls-3" d="M377.74,406.22a39.82,39.82,0,0,1-14.25,5.34,786,786,0,0,1-132.24,11.08h0A786,786,0,0,1,99,411.56a39.82,39.82,0,0,1-14.25-5.34L64,437.29h.06a993.49,993.49,0,0,0,167.15,14h0a993.49,993.49,0,0,0,167.15-14h.06Z" transform="translate(0)"/><path class="cls-2" d="M389.92,350.24,364,311.35,334.74,267.5l-5.23-7.84c-.34.07-.67.16-1,.22q-21.61,4-44.19,6.25-26,2.56-53,2.6h0q-27,0-53-2.6-22.55-2.22-44.19-6.25c-.34-.06-.68-.15-1-.22l-5.23,7.84L98.53,311.35,72.59,350.24A39.73,39.73,0,0,0,99,411.56a786,786,0,0,0,132.24,11.08h0a786,786,0,0,0,132.24-11.08,39.73,39.73,0,0,0,26.43-61.33Z" transform="translate(0)"/><path class="cls-4" d="M231.26,585.75H137.49l9.88,23.06a37.76,37.76,0,0,0,24.93,21.58,231.84,231.84,0,0,0,59,8.12h0a231.84,231.84,0,0,0,59-8.12,37.76,37.76,0,0,0,24.93-21.58L325,585.75Z" transform="translate(0)"/><path class="cls-5" d="M137.49,585.75l9.88,23.06a37.76,37.76,0,0,0,24.93,21.58,231.84,231.84,0,0,0,59,8.12h0V585.75Z" transform="translate(0)"/><path class="cls-4" d="M325,585.75H231.26V638.5a231.84,231.84,0,0,0,59-8.12,37.76,37.76,0,0,0,24.93-21.58Z" transform="translate(0)"/><path class="cls-2" d="M456,523.52l-57.51-86.22h-.06a993.49,993.49,0,0,1-167.15,14h0v149h0a1147.91,1147.91,0,0,0,199.28-17.23C458,578.24,471.46,546.73,456,523.52Z" transform="translate(0)"/><path class="cls-6" d="M231.26,451.31a993.49,993.49,0,0,1-167.15-14H64L6.54,523.51C-8.94,546.73,4.48,578.24,32,583.09a1147.9,1147.9,0,0,0,199.27,17.23h0v-149Z" transform="translate(0)"/><path class="cls-7" d="M193.44,243.3q-20-1.77-39.1-5.33a34.62,34.62,0,0,1-5.78-1.61L133,259.66c.34.07.67.16,1,.22q21.61,4,44.19,6.25,26,2.56,53,2.6h0V245Q212,245,193.44,243.3Z" transform="translate(0)"/><path class="cls-3" d="M314,236.35a34.62,34.62,0,0,1-5.78,1.61q-19.08,3.55-39.1,5.33-18.58,1.64-37.82,1.67h0v23.76h0q27,0,53-2.6,22.55-2.22,44.19-6.25c.34-.06.68-.15,1-.22Z" transform="translate(0)"/><path class="cls-2" d="M330.14,186.36l-29.9-44.83-41.1-61.61A33.28,33.28,0,0,0,231.26,65V245h0q19.22,0,37.82-1.67,20-1.77,39.1-5.33a34.62,34.62,0,0,0,5.78-1.61A33.54,33.54,0,0,0,330.14,186.36Z" transform="translate(0)"/><path class="cls-6" d="M203.37,79.92l-41.1,61.61-29.9,44.83a33.54,33.54,0,0,0,16.18,50,34.62,34.62,0,0,0,5.78,1.61q19.08,3.55,39.1,5.33Q212,244.94,231.26,245V65A33.28,33.28,0,0,0,203.37,79.92Z" transform="translate(0)"/><path class="cls-3" d="M363.49,411.56a786,786,0,0,1-132.24,11.08h0v28.67h0a993.49,993.49,0,0,0,167.15-14h.06l-20.73-31.07A39.82,39.82,0,0,1,363.49,411.56Z" transform="translate(0)"/><path class="cls-7" d="M231.26,451.31h0V422.64h0A786,786,0,0,1,99,411.56a39.82,39.82,0,0,1-14.25-5.34L64,437.29h.06A993.49,993.49,0,0,0,231.26,451.31Z" transform="translate(0)"/><path class="cls-6" d="M231.26,268.72q-27,0-53-2.6-22.55-2.22-44.19-6.25c-.34-.06-.68-.15-1-.22l-5.23,7.84L98.53,311.35,72.59,350.24A39.73,39.73,0,0,0,99,411.56a786,786,0,0,0,132.24,11.08V268.72Z" transform="translate(0)"/><path class="cls-2" d="M389.92,350.24,364,311.35,334.74,267.5l-5.23-7.84c-.34.07-.67.16-1,.22q-21.61,4-44.19,6.25-26,2.56-53,2.6h0V422.64h0a786,786,0,0,0,132.24-11.08,39.73,39.73,0,0,0,26.43-61.33Z" transform="translate(0)"/><path class="cls-8" d="M296.25,47.22h-39.1a7.26,7.26,0,0,1-6.91-5L238.16,5a7.13,7.13,0,0,0-6.91-5V75.59l71.9-23.36A7.13,7.13,0,0,0,296.25,47.22Z" transform="translate(0)"/><path class="cls-9" d="M303.15,52.23l-71.9,23.36,44.43,61.16a7.13,7.13,0,0,0,2.64-8.12L266.25,91.45a7.26,7.26,0,0,1,2.64-8.12l31.63-23A7.13,7.13,0,0,0,303.15,52.23Z" transform="translate(0)"/><path class="cls-8" d="M231.26,75.59l-44.43,61.16a7.13,7.13,0,0,0,8.54,0l31.63-23a7.26,7.26,0,0,1,8.54,0l31.63,23a7.13,7.13,0,0,0,8.54,0Z" transform="translate(0)"/><path class="cls-9" d="M224.35,5,212.27,42.2a7.26,7.26,0,0,1-6.91,5h-39.1a7.13,7.13,0,0,0-6.91,5l71.89,23.36V0A7.13,7.13,0,0,0,224.35,5Z" transform="translate(0)"/><path class="cls-10" d="M159.36,52.23A7.13,7.13,0,0,0,162,60.35l31.63,23a7.26,7.26,0,0,1,2.64,8.12l-12.08,37.18a7.13,7.13,0,0,0,2.64,8.12l44.43-61.16Z" transform="translate(0)"/><g class="cls-11"><path class="cls-12" d="M389.92,335.23c-39.95,0-79.12-9.11-116.43-27.09-29.58-14.25-58-34.07-84.53-58.9-44.91-42.06-68.66-83.76-69.65-85.52A15,15,0,0,1,145.43,149h0c.22.4,22.9,40,64.68,79,24.24,22.59,50.1,40.55,76.86,53.38,33.07,15.86,67.71,23.89,102.95,23.89a15,15,0,0,1,0,30Z" transform="translate(0)"/><circle class="cls-13" cx="283.53" cy="189.87" r="16.64"/><circle class="cls-13" cx="175.64" cy="316.02" r="16.64"/><circle class="cls-13" cx="313.95" cy="381.63" r="16.64"/><circle class="cls-13" cx="82.51" cy="505.26" r="16.64"/><circle class="cls-13" cx="231.26" cy="549.96" r="16.64"/><circle class="cls-13" cx="380.01" cy="533.31" r="16.64"/><path class="cls-12" d="M456,508.51c-65.83,0-127.54-9.36-183.41-27.83-44.91-14.85-86.16-35.57-122.6-61.6-62.53-44.66-89.2-89.37-90.31-91.25a15,15,0,0,1,25.85-15.22c.35.58,25.45,42.1,83.24,83,34,24,72.42,43.19,114.33,56.93,52.53,17.22,110.71,26,172.9,26a15,15,0,0,1,0,30Z" transform="translate(0)"/></g></g></g></svg>